<svg version="1.1" id="Layer_1" xmlns="http://www.w3.org/2000/svg" xmlns:xlink="http://www.w3.org/1999/xlink" x="0px" y="0px"
	 width="100%" viewBox="0 0 624 272" enable-background="new 0 0 624 272" xml:space="preserve">
<path fill="#000000" opacity="1.000000" stroke="none" 
	d="
M427.000000,273.000000 
	C284.706207,273.000000 142.912430,273.000000 1.059321,273.000000 
	C1.059321,182.398193 1.059321,91.796341 1.059321,1.097242 
	C208.877136,1.097242 416.754333,1.097242 624.815796,1.097242 
	C624.815796,91.666359 624.815796,182.333145 624.815796,273.000000 
	C559.129639,273.000000 493.314819,273.000000 427.000000,273.000000 
M242.568390,105.001289 
	C242.746475,104.692566 242.924561,104.383835 243.024414,104.027733 
	C243.024414,104.027733 243.062195,104.111038 243.594788,103.980537 
	C243.766495,103.673355 243.938202,103.366173 244.035507,103.036964 
	C244.035507,103.036964 244.055588,103.111908 244.584656,102.977844 
	C244.758484,102.673622 244.932312,102.369400 245.030197,102.032310 
	C245.030197,102.032310 245.059174,102.109848 245.581284,101.970566 
	C245.755295,101.669846 245.929306,101.369125 246.006851,100.996872 
	C246.006851,100.996872 246.108887,101.063629 246.768875,100.808670 
	C247.219498,100.275452 247.670105,99.742233 248.544754,98.689140 
	C247.998734,98.760300 247.452698,98.831467 246.457184,98.997314 
	C246.457184,98.997314 246.014496,99.119911 245.729126,98.568985 
	C243.453217,100.654518 241.177292,102.740059 238.924423,104.891403 
	C238.924423,104.891403 238.855057,104.885857 238.156158,104.870850 
	C237.819092,105.626450 237.482040,106.382057 237.161774,107.755104 
	C237.753754,108.151009 238.345734,108.546913 238.434372,109.061844 
	C238.265457,109.348946 238.096542,109.636055 237.377075,110.053101 
	C237.265930,110.383690 237.154785,110.714279 236.391144,110.970520 
	C236.406479,111.310143 236.421799,111.649773 236.437149,111.989403 
	C236.609207,111.643593 236.781265,111.297783 237.529053,111.026543 
	C237.871262,110.863976 238.213455,110.701401 238.913666,110.342125 
	C239.137863,110.183807 239.334549,109.996582 240.016876,109.393646 
	C240.100739,108.303032 240.184601,107.212410 240.621353,106.159393 
	C240.621353,106.159393 240.953232,106.033684 241.552536,106.053932 
	C241.733765,105.724686 241.915009,105.395439 242.026962,105.040878 
	C242.026962,105.040878 242.021988,105.114456 242.568390,105.001289 
M225.106964,121.745522 
	C225.409073,122.203621 225.711182,122.661720 226.056488,123.653923 
	C226.365433,123.937523 226.674377,124.221123 226.983322,124.504715 
	C227.155533,124.304718 227.327759,124.104721 227.499985,123.904732 
	C227.033295,123.606674 226.566589,123.308617 226.137253,122.588692 
	C226.137253,122.588692 226.183441,122.167656 226.683792,121.807373 
	C226.698090,121.507126 226.712387,121.206879 226.726669,120.906639 
	C226.324249,121.011787 225.921814,121.116943 225.106964,121.745522 
M249.987869,95.706169 
	C249.739670,95.974792 249.491486,96.243416 248.668503,97.008003 
	C248.771957,97.356735 248.875412,97.705467 248.978867,98.054207 
	C249.342102,97.726929 249.705338,97.399651 250.573837,96.939003 
	C250.737610,96.646049 250.901367,96.353088 251.596283,95.940163 
	C251.794647,95.643768 251.993011,95.347366 252.676025,94.974136 
	C252.970505,94.778526 253.131546,94.504494 253.753189,93.893730 
	C253.709030,93.517296 253.664871,93.140854 253.620697,92.764420 
	C253.246918,92.959579 252.873138,93.154732 252.017792,93.669754 
	C251.662949,94.109169 251.308105,94.548584 250.625610,95.095108 
	C250.625610,95.095108 250.438446,95.384598 249.987869,95.706169 
M92.479111,148.721191 
	C92.479111,148.721191 92.237106,148.800552 91.387177,148.774231 
	C90.722061,150.857742 90.056946,152.941238 89.737366,156.035156 
	C90.220650,156.307053 90.703934,156.578949 91.544830,156.939911 
	C92.012161,156.809998 92.479500,156.680099 92.253120,155.910233 
	C92.137192,155.617752 92.021271,155.325272 92.220619,154.389267 
	C92.783867,153.095673 93.347115,151.802094 94.090431,150.318024 
	C94.090431,150.318024 94.205238,150.081100 94.853783,149.993286 
	C95.237434,149.345428 95.621086,148.697556 96.632133,147.864304 
	C96.280014,147.534393 95.927902,147.204468 95.563576,146.841736 
	C95.563576,146.841736 95.537781,146.824951 95.833405,146.297241 
	C95.896828,145.711456 95.960251,145.125687 96.001877,144.516861 
	C96.001877,144.516861 96.025314,144.550140 96.675652,144.267273 
	C96.889206,143.861755 97.102753,143.456238 97.958260,142.860687 
	C100.031471,138.787842 102.113457,134.719193 104.089798,130.599869 
	C104.117928,130.541245 102.822784,129.847748 101.835670,129.269104 
	C103.197647,128.999695 104.052147,128.830673 104.820930,128.678604 
	C103.460220,126.647308 102.241951,124.828651 101.681252,122.995682 
	C102.244858,122.587326 102.808456,122.178970 103.372070,121.770622 
	C102.249344,121.853004 101.126610,121.935379 99.481613,122.324768 
	C99.298477,123.183212 98.679085,124.305367 99.010132,124.852989 
	C100.234795,126.878944 100.021164,131.602066 98.734337,133.428802 
	C97.289711,135.479523 96.229614,137.801147 94.895309,140.513351 
	C94.872902,140.685074 94.850487,140.856796 94.288437,141.139404 
	C94.514015,142.268341 94.739594,143.397263 94.435448,144.838608 
	C93.953842,145.891495 93.472237,146.944397 92.686455,148.346237 
	C92.686455,148.346237 92.588799,148.798721 92.479111,148.721191 
M303.085388,177.349457 
	C303.202362,177.402100 303.319366,177.454758 303.436340,177.507416 
	C303.287109,177.341446 303.137909,177.175476 302.945343,176.501541 
	C302.863861,176.192337 302.782349,175.883148 302.700867,175.573944 
	C302.558960,175.646698 302.417084,175.719452 302.275146,175.792221 
	C302.519684,176.191284 302.764221,176.590347 303.085388,177.349457 
M224.073547,126.384354 
	C224.073547,126.384354 224.091156,126.120201 223.847076,125.451797 
	C223.300827,125.457352 222.754562,125.462898 222.208313,125.468452 
	C222.469070,126.088326 222.729813,126.708199 223.145813,127.548683 
	C223.242584,127.702026 223.348083,127.849091 223.848999,128.507950 
	C224.220856,128.347000 224.592712,128.186035 224.964569,128.025085 
	C224.668747,127.566414 224.372925,127.107742 224.073547,126.384354 
M329.090576,111.373634 
	C328.912231,111.144356 328.733917,110.915077 328.555634,110.685783 
	C328.659302,111.154617 328.762970,111.623451 328.940521,112.542267 
	C329.099365,112.777039 329.258179,113.011818 329.417023,113.246597 
	C329.349213,112.771271 329.281403,112.295944 329.090576,111.373634 
M347.177887,177.803406 
	C346.839539,177.913254 346.501221,178.023087 346.162872,178.132935 
	C346.786194,178.619080 347.409485,179.105240 347.688110,179.886459 
	C347.688110,179.886459 347.926178,180.272720 347.832977,180.377899 
	C347.832977,180.377899 347.920746,180.487671 347.819244,181.334808 
	C347.699066,181.888412 347.578918,182.442032 347.042999,183.454376 
	C349.024719,185.882111 349.183289,185.811005 351.959076,180.479980 
	C351.966003,179.650803 351.972900,178.821640 352.420990,177.479141 
	C355.348633,175.904465 355.914398,174.097168 352.590637,171.256989 
	C352.210876,171.418549 351.831116,171.580093 351.451385,171.741653 
	C351.610992,171.975403 351.770599,172.209137 351.425385,172.550812 
	C351.447113,173.002365 351.468842,173.453918 351.206055,173.045395 
	C350.486389,173.862839 349.766724,174.680283 348.537628,174.965775 
	C348.114838,174.958450 347.692017,174.951126 347.269226,174.943802 
	C347.547455,175.571365 347.825684,176.198914 347.973450,177.402100 
	C347.982849,177.598618 347.992249,177.795120 347.177887,177.803406 
M212.999481,144.995102 
	C212.999481,144.995102 212.964554,144.945572 212.335434,144.811737 
	C211.925415,145.549545 211.515411,146.287354 210.707886,147.915085 
	C210.793243,148.463623 210.878601,149.012146 210.389374,149.921982 
	C209.023361,152.713501 207.657364,155.505020 206.167969,158.548721 
	C209.882156,159.342941 212.382370,159.296448 212.000000,155.000000 
	C212.000000,155.000000 211.998367,155.002594 212.615143,154.683304 
	C214.343781,151.621765 216.804550,148.735718 215.552124,144.763336 
	C215.734222,144.233063 215.916306,143.702805 216.487289,143.042953 
	C216.487289,143.042953 216.883255,142.936996 217.545944,142.908051 
	C217.992386,141.547256 218.438812,140.186447 219.010757,138.410004 
	C219.010757,138.410004 219.232910,138.036972 219.594604,138.049149 
	C219.594604,138.049149 219.956451,138.054611 220.085358,138.303711 
	C220.176208,138.341507 220.267059,138.379303 220.357910,138.417099 
	C220.256805,138.263397 220.155716,138.109711 220.364502,137.374619 
	C221.461670,136.202942 222.558838,135.031265 223.656006,133.859589 
	C223.220154,133.372269 222.784317,132.884964 222.348480,132.397659 
	C220.876907,133.664963 219.405350,134.932251 217.225418,136.085754 
	C216.695160,136.710373 216.164886,137.334976 215.069107,138.189667 
	C214.626663,139.067001 214.184204,139.944321 213.238831,140.913071 
	C212.954590,141.116959 212.670349,141.320847 212.386108,141.524750 
	C212.567917,141.683594 212.749725,141.842422 213.016327,142.495377 
	C213.021637,142.662415 213.026947,142.829437 212.781113,143.670502 
	C212.833923,144.115082 212.886749,144.559647 212.999481,144.995102 
M358.722321,156.615311 
	C358.805176,156.056686 358.888000,155.498047 359.086060,154.213959 
	C358.856628,153.468887 358.627228,152.723816 358.397827,151.978745 
	C357.602692,152.317871 356.807587,152.656982 355.289276,153.074402 
	C351.547546,154.999557 351.547546,154.999557 353.820618,159.007614 
	C354.081329,158.288574 354.301117,157.682358 354.786499,157.754456 
	C354.561768,158.848862 354.337067,159.943268 354.050323,161.617889 
	C353.894775,161.734695 353.739258,161.851486 352.847382,162.210602 
	C353.892090,162.804108 354.936829,163.397598 356.448914,164.342712 
	C356.972992,164.434921 357.497101,164.527115 358.021179,164.619324 
	C357.767487,163.084915 357.513794,161.550507 357.184418,159.288269 
	C357.078705,158.816269 356.972992,158.344269 357.642822,157.699677 
	C357.717377,157.197403 357.791931,156.695129 357.823120,156.612915 
	C357.823120,156.612915 358.241028,156.673477 358.722321,156.615311 
M84.345940,160.049957 
	C84.575500,160.702454 84.805061,161.354935 84.915115,162.523132 
	C84.838692,162.682175 84.762260,162.841202 84.412018,163.195511 
	C84.172379,163.425201 83.980446,163.690506 83.546494,165.161346 
	C83.593727,165.560303 83.640968,165.959259 83.868767,166.897385 
	C84.214188,166.995361 84.559601,167.093323 85.612396,166.937927 
	C86.402260,164.938950 87.192131,162.939972 88.707458,160.727661 
	C88.932472,160.008575 89.157486,159.289474 89.514893,158.307953 
	C89.623169,158.046188 89.587593,157.841843 88.874916,156.586975 
	C88.217606,157.029190 87.560295,157.471390 86.316124,158.182648 
	C85.826645,158.777374 85.337166,159.372086 84.345940,160.049957 
M371.235870,113.950706 
	C371.083099,114.537468 370.930328,115.124237 370.777496,115.710983 
	C371.231049,115.176422 371.684601,114.641869 372.510620,113.798004 
	C372.476532,113.411270 372.442444,113.024536 372.408356,112.637810 
	C372.222076,113.045502 372.035767,113.453194 371.235870,113.950706 
M329.596344,122.593079 
	C329.375946,122.184433 329.155518,121.775787 328.935150,121.367157 
	C328.618134,121.797089 328.301117,122.227020 327.346161,123.076469 
	C327.649353,123.477051 327.952576,123.877632 328.255768,124.278214 
	C328.587952,123.838554 328.920135,123.398888 329.596344,122.593079 
M259.980255,176.804489 
	C259.582367,177.431320 259.184509,178.058151 258.786621,178.684982 
	C259.254608,178.780350 259.979126,179.106949 260.141479,178.926804 
	C260.588959,178.430344 260.801147,177.721771 261.568970,176.928925 
	C261.856506,176.738556 262.044952,176.476852 262.693787,175.883255 
	C263.529114,174.984451 264.364441,174.085648 265.686554,172.888184 
	C265.669617,172.621002 265.652679,172.353836 265.635742,172.086639 
	C265.275421,172.235931 264.915100,172.385208 263.964722,172.798676 
	C263.151733,173.708542 262.338776,174.618393 261.139435,175.807755 
	C260.886353,176.009537 260.680664,176.251587 259.980255,176.804489 
M143.216980,133.722321 
	C143.155838,132.991211 143.094696,132.260101 143.834457,131.304733 
	C144.507370,130.248886 145.180267,129.193024 145.853165,128.137161 
	C145.393631,127.877998 144.934097,127.618820 144.474564,127.359650 
	C143.804016,128.555405 143.133453,129.751144 141.832840,130.897202 
	C141.235321,131.624130 140.637817,132.351059 139.904007,133.832047 
	C140.801712,133.899414 141.699432,133.966797 143.216980,133.722321 
M220.003433,78.084747 
	C219.172272,77.984741 218.341095,77.884727 217.509918,77.784721 
	C217.633621,78.321350 217.698456,79.290649 217.891602,79.316925 
	C218.589935,79.411934 219.331406,79.189941 220.811813,79.170395 
	C222.426437,79.057564 224.041077,78.944733 225.655701,78.831894 
	C225.666992,78.611603 225.678284,78.391304 225.689575,78.171005 
	C224.474640,78.054199 223.259720,77.937386 221.400635,77.630661 
	C221.176971,77.640129 220.953308,77.649605 220.943680,77.117119 
	C220.994461,76.929649 221.045258,76.742180 221.762115,76.386620 
	C222.192780,76.235466 222.623444,76.084312 223.835007,76.060005 
	C224.886703,76.082291 225.938416,76.104584 227.042862,76.556267 
	C227.202988,76.766296 227.363113,76.976326 227.523254,77.186348 
	C227.684845,76.823685 227.846436,76.461029 228.341064,75.863556 
	C228.488937,75.803986 228.649490,75.763779 228.780243,75.678085 
	C228.868378,75.620316 228.914444,75.498337 228.979324,75.405075 
	C226.990036,75.029633 225.000763,74.654190 223.114975,73.739388 
	C223.442215,73.379311 223.780960,73.028709 224.089966,72.653610 
	C224.187424,72.535324 224.205231,72.351425 224.259491,72.197556 
	C223.848999,71.926865 223.438522,71.656166 223.028046,71.385475 
	C222.047623,72.876831 221.067215,74.368187 220.341537,76.781311 
	C220.470581,77.072487 220.599640,77.363655 220.003433,78.084747 
M324.137817,135.327103 
	C324.467773,135.227493 324.797729,135.127884 325.696411,134.902206 
	C326.276825,134.204300 326.857239,133.506409 328.265106,131.813568 
	C326.267212,132.495178 325.579712,132.729721 324.958710,132.281754 
	C324.542511,131.870453 324.126343,131.459167 323.710144,131.047867 
	C323.825348,131.650421 323.940582,132.252960 323.998749,133.542801 
	C323.991638,134.002502 323.984528,134.462219 324.137817,135.327103 
M341.247101,104.046135 
	C340.129974,104.828323 339.012848,105.610512 337.895752,106.392693 
	C338.309845,106.818298 338.723938,107.243896 339.138062,107.669495 
	C340.129089,106.474770 341.120087,105.280037 342.351929,103.924355 
	C342.205780,103.912407 342.059662,103.900452 341.247101,104.046135 
M212.832962,79.046448 
	C217.865341,76.640991 210.101318,75.348839 211.362946,73.242691 
	C211.515823,75.114876 211.668686,76.987053 211.447922,79.181129 
	C211.480621,79.581451 211.513321,79.981766 211.546021,80.382095 
	C211.785538,79.993790 212.025055,79.605492 212.832962,79.046448 
M232.237961,117.905327 
	C232.839905,117.273712 233.441864,116.642097 234.636032,115.883545 
	C234.655945,115.068550 234.675858,114.253555 234.695755,113.438560 
	C234.113708,113.860916 233.531677,114.283272 232.212952,114.803459 
	C230.784424,115.652016 229.355896,116.500572 227.819824,117.720924 
	C227.765671,117.988281 227.811584,118.237190 227.117661,118.953217 
	C227.416245,119.484642 227.714813,120.016075 228.277969,121.188560 
	C231.603134,122.859253 232.146744,121.238777 232.037659,118.276596 
	C232.037659,118.276596 232.374008,118.527847 232.779724,118.628578 
	C232.643509,118.559875 232.507309,118.491173 232.237961,117.905327 
M282.750671,151.964050 
	C287.913147,152.191696 287.671448,147.660553 289.694092,145.123322 
	C289.373749,144.804703 289.053436,144.486069 288.733093,144.167450 
	C286.397980,146.396393 284.062836,148.625336 281.427887,151.150665 
	C281.609009,151.445099 281.790161,151.739517 282.750671,151.964050 
M376.820465,107.164139 
	C377.403259,106.766556 377.986023,106.368973 379.044800,105.539124 
	C383.216644,101.603546 383.092651,100.517159 377.983978,97.632164 
	C375.967590,101.785362 373.959198,105.922050 371.950836,110.058739 
	C372.422638,110.332123 372.894470,110.605515 373.366272,110.878899 
	C374.252563,109.553726 375.138824,108.228554 376.820465,107.164139 
M110.549149,107.444672 
	C108.716881,104.710838 106.829781,106.132645 106.202789,108.011772 
	C105.113884,111.275314 104.801094,114.797798 104.118668,118.448112 
	C110.609833,117.173019 108.837814,111.696022 110.549149,107.444672 
M78.893448,189.132492 
	C79.946327,185.820358 80.999214,182.508240 82.301300,178.412155 
	C78.716446,180.467682 75.528900,187.916901 76.693176,189.998718 
	C76.811775,190.210785 77.919128,189.869858 78.893448,189.132492 
M276.674988,161.417496 
	C277.216644,160.325394 277.758270,159.233292 278.299927,158.141220 
	C277.579346,157.965668 276.502563,157.406281 276.202911,157.684341 
	C275.178528,158.634857 274.427277,159.879700 273.571838,161.012283 
	C274.419312,161.266922 275.266754,161.521561 276.674988,161.417496 
M200.720413,176.307892 
	C201.028946,178.791000 201.028946,178.791000 204.880035,176.252930 
	C203.641693,176.144669 202.403351,176.036423 200.720413,176.307892 
M270.498657,169.082275 
	C271.273529,168.080521 272.048401,167.078766 272.823303,166.077011 
	C272.533539,165.752869 272.243805,165.428741 271.954071,165.104599 
	C270.694366,166.273758 269.434692,167.442932 268.175018,168.612091 
	C268.774170,168.914734 269.373291,169.217377 270.498657,169.082275 
M382.934967,91.212540 
	C383.265900,91.999535 383.596832,92.786522 383.927765,93.573524 
	C384.511963,92.756042 385.096161,91.938568 385.680328,91.121086 
	C384.936768,91.025116 384.193207,90.929146 382.934967,91.212540 
M113.505791,83.773514 
	C113.631302,82.453842 113.756805,81.134171 113.882317,79.814507 
	C113.439621,79.812317 112.996925,79.810127 112.554230,79.807938 
	C112.633728,81.103241 112.713234,82.398552 113.505791,83.773514 
M352.125671,168.450897 
	C352.868439,168.207672 353.611237,167.964447 354.354004,167.721222 
	C353.959045,167.053513 353.564056,166.385803 353.169098,165.718094 
	C352.849304,166.419632 352.529510,167.121170 352.125671,168.450897 
M338.300690,112.428871 
	C338.090515,111.398987 337.880341,110.369102 337.670166,109.339226 
	C337.213684,109.491470 336.757233,109.643723 336.300751,109.795975 
	C336.769562,110.688263 337.238373,111.580544 338.300690,112.428871 
M345.454590,97.852737 
	C345.685333,97.095375 345.916077,96.338013 346.146820,95.580650 
	C345.697845,95.524155 345.248901,95.467667 344.799927,95.411171 
	C344.890320,96.363579 344.980713,97.315987 345.454590,97.852737 
M134.509918,160.215607 
	C134.653488,159.723022 134.797043,159.230453 134.940613,158.737869 
	C134.404922,158.770248 133.869247,158.802612 133.333557,158.834991 
	C133.558258,159.383377 133.782944,159.931747 134.509918,160.215607 
M326.888641,128.248398 
	C326.338806,127.827095 325.789001,127.405792 325.239197,126.984489 
	C325.138123,128.080261 325.037048,129.176041 324.935944,130.271820 
	C325.421570,129.843719 325.907196,129.415634 326.888641,128.248398 
M301.896088,180.206482 
	C302.030518,180.280273 302.167633,180.414764 302.298492,180.408936 
	C302.405945,180.404144 302.607666,180.164627 302.594391,180.144760 
	C302.238800,179.612061 301.860779,179.094315 301.486511,178.574051 
	C301.518280,178.983337 301.550049,179.392639 301.896088,180.206482 
M342.518433,100.775032 
	C342.800568,100.974068 343.082703,101.173103 343.364838,101.372139 
	C343.183746,101.077499 343.002655,100.782860 342.518433,100.775032 
M131.814636,175.934341 
	C131.662354,175.609802 131.510071,175.285248 131.357788,174.960709 
	C131.391861,175.357605 131.425919,175.754517 131.814636,175.934341 
M204.086258,164.592911 
	C204.208389,165.149460 204.330505,165.706009 204.452637,166.262558 
	C204.671585,166.206345 204.890518,166.150116 205.109467,166.093903 
	C204.930038,165.437393 204.750595,164.780899 204.086258,164.592911 
M88.132790,150.699005 
	C88.051689,150.698914 87.970581,150.698822 88.132790,150.699005 
M281.440857,156.387878 
	C281.508728,156.134857 281.576569,155.881836 281.644440,155.628815 
	C281.475922,155.795639 281.307404,155.962463 281.440857,156.387878 
M326.044891,125.449982 
	C326.623871,125.644737 327.202820,125.839500 327.781799,126.034271 
	C327.348999,125.563858 326.916199,125.093445 326.044891,125.449982 
M206.372253,162.611359 
	C206.016556,162.220886 205.660843,161.830399 205.305145,161.439926 
	C205.433212,162.037308 205.561264,162.634689 206.372253,162.611359 
M301.218964,184.439270 
	C301.407623,184.450165 301.596252,184.461044 301.784912,184.471924 
	C301.696472,184.365295 301.608032,184.258682 301.218964,184.439270 
M201.648178,167.526688 
	C201.648178,167.526688 201.438583,167.413391 201.438583,167.413391 
	C201.438583,167.413391 201.473923,167.650879 201.648178,167.526688 
M356.597778,167.517548 
	C356.597778,167.517548 356.476776,167.591888 356.597778,167.517548 
M300.263885,181.509109 
	C300.416870,181.527695 300.569855,181.546280 300.722839,181.564850 
	C300.656219,181.474442 300.589600,181.384033 300.263885,181.509109 
M253.394791,183.478287 
	C253.394791,183.478287 253.524338,183.395493 253.394791,183.478287 
M205.521118,173.359283 
	C205.521118,173.359283 205.415939,173.550415 205.415939,173.550415 
	C205.415939,173.550415 205.630310,173.520187 205.521118,173.359283 
M379.796997,95.533150 
	C379.597534,95.519913 379.398041,95.506676 379.198578,95.493431 
	C379.291473,95.602280 379.384399,95.711136 379.796997,95.533150 
M223.490784,130.392059 
	C223.490784,130.392059 223.547852,130.492493 223.490784,130.392059 
M225.235199,130.477692 
	C225.410660,130.493805 225.586121,130.509918 225.761581,130.526016 
	C225.681961,130.430054 225.602356,130.334091 225.235199,130.477692 
M348.515991,92.401169 
	C348.515991,92.401169 348.577087,92.507729 348.515991,92.401169 
M102.658905,115.524513 
	C102.658905,115.524513 102.434601,115.406075 102.434601,115.406075 
	C102.434601,115.406075 102.474480,115.657173 102.658905,115.524513 
M349.396851,90.494759 
	C349.396851,90.494759 349.524902,90.413712 349.396851,90.494759 
M207.734879,163.486404 
	C207.529770,163.461197 207.324646,163.435974 207.119537,163.410767 
	C207.210297,163.520004 207.301041,163.629227 207.734879,163.486404 
M208.530655,149.364380 
	C208.530655,149.364380 208.423431,149.557129 208.423431,149.557129 
	C208.423431,149.557129 208.645660,149.526810 208.530655,149.364380 
M131.449188,157.489090 
	C131.449188,157.489090 131.523178,157.452515 131.449188,157.489090 
z"/>
<path fill="#1B1B1A" opacity="1.000000" stroke="none" 
	d="
M101.023682,123.009987 
	C102.241951,124.828651 103.460220,126.647308 104.820930,128.678604 
	C104.052147,128.830673 103.197647,128.999695 101.835670,129.269104 
	C102.822784,129.847748 104.117928,130.541245 104.089798,130.599869 
	C102.113457,134.719193 100.031471,138.787842 97.566116,142.620895 
	C96.763565,141.918137 96.353165,141.455170 95.974686,140.994049 
	C96.006615,140.995880 95.994278,141.058624 96.004768,140.759949 
	C95.677582,140.309174 95.339905,140.157043 95.002228,140.004913 
	C96.229614,137.801147 97.289711,135.479523 98.734337,133.428802 
	C100.021164,131.602066 100.234795,126.878944 99.010132,124.852989 
	C98.679085,124.305367 99.298477,123.183212 99.869949,122.376724 
	C100.465355,122.685730 100.720482,122.879501 101.023682,123.009987 
z"/>
<path fill="#1B1B1A" opacity="1.000000" stroke="none" 
	d="
M214.979034,144.822174 
	C216.804550,148.735718 214.343781,151.621765 212.242615,154.752594 
	C211.870087,154.821899 211.620010,154.816864 211.620010,154.816864 
	C211.620010,154.816864 212.001862,154.998550 212.001862,154.998550 
	C212.382370,159.296448 209.882156,159.342941 206.167969,158.548721 
	C207.657364,155.505020 209.023361,152.713501 210.879639,149.519669 
	C211.548096,149.025757 211.726303,148.934143 212.217926,148.851837 
	C213.054932,148.611771 213.578552,148.362381 214.152893,147.758728 
	C213.819778,147.246094 213.435928,147.087738 213.090790,146.908066 
	C213.129486,146.886749 213.140091,146.799026 213.206985,146.488281 
	C213.170776,145.766876 213.067657,145.356232 212.964554,144.945572 
	C212.964554,144.945572 212.999481,144.995102 213.358917,144.797623 
	C213.822113,144.326721 213.925842,144.053314 214.381561,143.936050 
	C214.815353,144.335526 214.897186,144.578842 214.979034,144.822174 
z"/>
<path fill="#151515" opacity="1.000000" stroke="none" 
	d="
M110.478477,107.779221 
	C108.837814,111.696022 110.609833,117.173019 104.118668,118.448112 
	C104.801094,114.797798 105.113884,111.275314 106.202789,108.011772 
	C106.829781,106.132645 108.716881,104.710838 110.478477,107.779221 
z"/>
<path fill="#2B2B2B" opacity="1.000000" stroke="none" 
	d="
M376.025085,106.903381 
	C375.138824,108.228554 374.252563,109.553726 373.366272,110.878899 
	C372.894470,110.605515 372.422638,110.332123 371.950836,110.058739 
	C373.959198,105.922050 375.967590,101.785362 377.983978,97.632164 
	C383.092651,100.517159 383.216644,101.603546 378.409088,105.790154 
	C377.190613,106.328583 376.607849,106.615982 376.025085,106.903381 
M378.335632,101.451881 
	C378.335632,101.451881 378.450317,101.383026 378.335632,101.451881 
z"/>
<path fill="#5D5D5D" opacity="1.000000" stroke="none" 
	d="
M78.730553,189.459015 
	C77.919128,189.869858 76.811775,190.210785 76.693176,189.998718 
	C75.528900,187.916901 78.716446,180.467682 82.301300,178.412155 
	C80.999214,182.508240 79.946327,185.820358 78.730553,189.459015 
z"/>
<path fill="#2B2B2B" opacity="1.000000" stroke="none" 
	d="
M281.727722,150.854279 
	C284.062836,148.625336 286.397980,146.396393 288.733093,144.167450 
	C289.053436,144.486069 289.373749,144.804703 289.694092,145.123322 
	C287.671448,147.660553 287.913147,152.191696 282.304688,151.702988 
	C281.815033,151.246048 281.771393,151.050156 281.727722,150.854279 
z"/>
<path fill="#4A4A4A" opacity="1.000000" stroke="none" 
	d="
M240.953232,106.033684 
	C240.953232,106.033684 240.621353,106.159393 240.402496,105.785706 
	C239.756226,105.216553 239.328796,105.021072 238.901367,104.825592 
	C241.177292,102.740059 243.453217,100.654518 245.753860,99.231857 
	C245.888687,100.284370 245.998779,100.674004 246.108887,101.063629 
	C246.108887,101.063629 246.006851,100.996872 245.659180,100.802948 
	C245.227386,101.109291 245.143265,101.609566 245.059174,102.109848 
	C245.059174,102.109848 245.030197,102.032310 244.678162,101.841972 
	C244.235962,102.138390 244.145767,102.625145 244.055573,103.111908 
	C244.055588,103.111908 244.035507,103.036964 243.674683,102.868042 
	C243.229950,103.169762 243.146072,103.640396 243.062195,104.111038 
	C243.062195,104.111038 243.024414,104.027733 242.711639,103.828918 
	C242.273254,104.124893 242.147629,104.619675 242.022003,105.114456 
	C242.021988,105.114456 242.026962,105.040878 241.715317,104.934601 
	C241.253525,105.230110 241.103378,105.631897 240.953232,106.033684 
z"/>
<path fill="#8D8C8D" opacity="1.000000" stroke="none" 
	d="
M215.265579,144.792755 
	C214.897186,144.578842 214.815353,144.335526 214.264099,143.836609 
	C213.525696,143.407593 213.271561,143.212738 213.032242,142.996460 
	C213.026947,142.829437 213.021637,142.662415 213.224487,142.155746 
	C213.535675,141.484634 213.638718,141.153137 213.741760,140.821655 
	C214.184204,139.944321 214.626663,139.067001 215.594833,138.021561 
	C216.522430,137.611359 216.924316,137.369247 217.734314,136.999847 
	C218.505951,137.260696 218.869431,137.648834 219.232910,138.036972 
	C219.232910,138.036972 219.010757,138.410004 218.697586,138.773560 
	C217.966675,139.776123 217.548950,140.415131 216.911194,141.271667 
	C216.493576,142.050323 216.295990,142.611435 216.098404,143.172531 
	C215.916306,143.702805 215.734222,144.233063 215.265579,144.792755 
z"/>
<path fill="#1B1B1A" opacity="1.000000" stroke="none" 
	d="
M276.394592,161.596848 
	C275.266754,161.521561 274.419312,161.266922 273.571838,161.012283 
	C274.427277,159.879700 275.178528,158.634857 276.202911,157.684341 
	C276.502563,157.406281 277.579346,157.965668 278.299927,158.141205 
	C277.758270,159.233292 277.216644,160.325394 276.394592,161.596848 
z"/>
<path fill="#151515" opacity="1.000000" stroke="none" 
	d="
M219.413757,138.043060 
	C218.869431,137.648834 218.505951,137.260696 217.953705,136.812149 
	C217.821243,136.567673 217.877518,136.383621 217.933792,136.199554 
	C219.405350,134.932251 220.876907,133.664963 222.348480,132.397659 
	C222.784317,132.884964 223.220154,133.372269 223.656006,133.859589 
	C222.558838,135.031265 221.461670,136.202942 220.183716,137.688690 
	C220.002945,138.002747 219.956451,138.054611 219.956451,138.054611 
	C219.956451,138.054611 219.594604,138.049149 219.413757,138.043060 
z"/>
<path fill="#1B1B1A" opacity="1.000000" stroke="none" 
	d="
M351.490540,173.905472 
	C351.468842,173.453918 351.447113,173.002365 351.941223,172.380981 
	C352.626801,172.122009 352.796478,172.032898 352.966187,171.943771 
	C355.914398,174.097168 355.348633,175.904465 351.835480,177.707962 
	C351.007263,177.910339 350.764587,177.883911 350.654419,177.471344 
	C351.021484,176.025314 351.256012,174.965393 351.490540,173.905472 
z"/>
<path fill="#737373" opacity="1.000000" stroke="none" 
	d="
M84.685829,163.000244 
	C84.762260,162.841202 84.838692,162.682175 85.220078,162.123260 
	C85.487831,161.370987 85.450623,161.018600 85.698662,160.568024 
	C86.348686,160.308548 86.713463,160.147232 87.296188,160.071625 
	C87.789490,160.347260 87.945442,160.608490 87.981995,160.940994 
	C87.192131,162.939972 86.402260,164.938950 85.041138,166.948517 
	C84.200478,166.770309 83.939919,166.570007 83.688202,166.358215 
	C83.640968,165.959259 83.593727,165.560303 83.877930,164.739044 
	C84.368195,163.877914 84.527016,163.439087 84.685829,163.000244 
z"/>
<path fill="#8D8C8D" opacity="1.000000" stroke="none" 
	d="
M89.391823,155.024750 
	C90.056946,152.941238 90.722061,150.857742 91.832855,149.120270 
	C92.461472,149.590195 92.644409,149.714066 93.086800,150.023865 
	C93.534279,150.309341 93.722321,150.408920 93.910370,150.508514 
	C93.347115,151.802094 92.783867,153.095673 91.643806,154.757080 
	C90.508606,155.091522 89.950211,155.058136 89.391823,155.024750 
z"/>
<path fill="#151515" opacity="1.000000" stroke="none" 
	d="
M231.625992,118.358948 
	C232.146744,121.238777 231.603134,122.859253 228.295593,120.343536 
	C228.194672,119.154892 228.076111,118.811272 227.957550,118.467644 
	C227.811584,118.237190 227.765671,117.988281 227.937210,117.869614 
	C229.245056,118.131844 230.435532,118.245392 231.625992,118.358948 
z"/>
<path fill="#737373" opacity="1.000000" stroke="none" 
	d="
M231.831818,118.317764 
	C230.435532,118.245392 229.245056,118.131844 227.990997,117.683708 
	C229.355896,116.500572 230.784424,115.652016 232.863464,114.880783 
	C233.690613,115.308899 233.867218,115.659691 234.043823,116.010483 
	C233.441864,116.642097 232.839905,117.273712 232.330902,118.190567 
	C232.423859,118.475800 232.374008,118.527847 232.374008,118.527847 
	C232.374008,118.527847 232.037659,118.276596 231.831818,118.317764 
z"/>
<path fill="#1B1B1A" opacity="1.000000" stroke="none" 
	d="
M200.942719,176.118027 
	C202.403351,176.036423 203.641693,176.144669 204.880035,176.252930 
	C201.028946,178.791000 201.028946,178.791000 200.942719,176.118027 
z"/>
<path fill="#4A4A4A" opacity="1.000000" stroke="none" 
	d="
M223.054108,75.933159 
	C222.623444,76.084312 222.192780,76.235466 221.203751,76.253738 
	C220.459198,76.033745 220.273010,75.946648 220.086807,75.859543 
	C221.067215,74.368187 222.047623,72.876831 223.028046,71.385475 
	C223.438522,71.656166 223.848999,71.926865 224.259491,72.197556 
	C224.205231,72.351425 224.187424,72.535324 224.089966,72.653610 
	C223.780960,73.028709 223.442215,73.379311 223.085175,74.284714 
	C223.054947,75.197739 223.054520,75.565453 223.054108,75.933159 
z"/>
<path fill="#151515" opacity="1.000000" stroke="none" 
	d="
M211.821564,78.859238 
	C211.668686,76.987053 211.515823,75.114876 211.362946,73.242691 
	C210.101318,75.348839 217.865341,76.640991 212.437469,79.042992 
	C212.041992,79.039536 211.821548,78.859238 211.821564,78.859238 
z"/>
<path fill="#8D8C8D" opacity="1.000000" stroke="none" 
	d="
M223.444550,75.996582 
	C223.054520,75.565453 223.054947,75.197739 223.033417,74.554390 
	C225.000763,74.654190 226.990036,75.029633 228.979324,75.405075 
	C228.914444,75.498337 228.868378,75.620316 228.780243,75.678085 
	C228.649490,75.763779 228.488937,75.803986 227.918274,75.923538 
	C227.327011,76.031311 227.158554,76.079094 226.990112,76.126877 
	C225.938416,76.104584 224.886703,76.082291 223.444550,75.996582 
z"/>
<path fill="#2B2B2B" opacity="1.000000" stroke="none" 
	d="
M354.520905,157.076126 
	C354.301117,157.682358 354.081329,158.288574 353.820618,159.007614 
	C351.547546,154.999557 351.547546,154.999557 355.644562,153.037735 
	C355.999847,153.001068 356.003571,152.989899 355.978424,153.241577 
	C355.968567,153.661179 355.983887,153.829102 355.999603,153.998520 
	C356.000000,154.000000 355.996277,153.999878 355.826660,154.084167 
	C355.485260,154.616852 355.313538,155.065277 354.694641,155.788284 
	C354.338623,156.400635 354.429749,156.738373 354.520905,157.076126 
z"/>
<path fill="#1B1B1A" opacity="1.000000" stroke="none" 
	d="
M357.260101,160.016098 
	C357.513794,161.550507 357.767487,163.084915 358.021179,164.619324 
	C357.497101,164.527115 356.972992,164.434921 356.223694,163.907654 
	C355.972656,163.301636 355.946838,163.130646 356.004822,162.565018 
	C356.147949,161.632538 356.207275,161.094696 356.480957,160.638611 
	C356.927551,160.520844 357.115814,160.286087 357.260101,160.016098 
z"/>
<path fill="#1B1B1A" opacity="1.000000" stroke="none" 
	d="
M270.235535,169.301147 
	C269.373291,169.217377 268.774170,168.914734 268.175018,168.612091 
	C269.434692,167.442932 270.694366,166.273758 271.954071,165.104599 
	C272.243805,165.428741 272.533539,165.752869 272.823303,166.077011 
	C272.048401,167.078766 271.273529,168.080521 270.235535,169.301147 
z"/>
<path fill="#8D8C8D" opacity="1.000000" stroke="none" 
	d="
M351.841919,181.302521 
	C349.183289,185.811005 349.024719,185.882111 347.539978,183.017761 
	C348.396698,181.995407 348.756500,181.409653 349.469788,180.841156 
	C350.496185,181.006439 351.169067,181.154480 351.841919,181.302521 
z"/>
<path fill="#2B2B2B" opacity="1.000000" stroke="none" 
	d="
M383.192322,91.022858 
	C384.193207,90.929146 384.936768,91.025116 385.680328,91.121094 
	C385.096161,91.938568 384.511963,92.756042 383.927765,93.573517 
	C383.596832,92.786522 383.265900,91.999535 383.192322,91.022858 
z"/>
<path fill="#B9B9B8" opacity="1.000000" stroke="none" 
	d="
M351.348297,173.475433 
	C351.256012,174.965393 351.021484,176.025314 350.454773,177.878693 
	C349.374756,179.194733 348.626923,179.717316 348.254089,179.877365 
	C348.760529,178.486099 348.891968,177.457367 348.931335,176.281876 
	C348.798401,175.886749 348.867676,175.674286 349.047028,175.497742 
	C349.766724,174.680283 350.486389,173.862839 351.348297,173.475433 
z"/>
<path fill="#4A4A4A" opacity="1.000000" stroke="none" 
	d="
M113.149261,83.733688 
	C112.713234,82.398552 112.633728,81.103241 112.554230,79.807938 
	C112.996925,79.810127 113.439621,79.812317 113.882317,79.814507 
	C113.756805,81.134171 113.631302,82.453842 113.149261,83.733688 
z"/>
<path fill="#0A0A0A" opacity="1.000000" stroke="none" 
	d="
M342.111115,104.085312 
	C341.120087,105.280037 340.129089,106.474770 339.138062,107.669495 
	C338.723938,107.243896 338.309845,106.818298 337.895752,106.392693 
	C339.012848,105.610512 340.129974,104.828323 341.627289,104.018951 
	C342.007477,103.991776 342.111115,104.085312 342.111115,104.085312 
z"/>
<path fill="#1B1B1A" opacity="1.000000" stroke="none" 
	d="
M352.167694,168.136810 
	C352.529510,167.121170 352.849304,166.419632 353.169098,165.718094 
	C353.564056,166.385803 353.959045,167.053513 354.354004,167.721222 
	C353.611237,167.964447 352.868439,168.207672 352.167694,168.136810 
z"/>
<path fill="#B9B9B8" opacity="1.000000" stroke="none" 
	d="
M238.912903,104.858498 
	C239.328796,105.021072 239.756226,105.216553 240.226059,105.766907 
	C240.184601,107.212410 240.100739,108.303032 239.633728,109.367416 
	C239.146271,109.208405 239.041992,109.075607 238.937714,108.942818 
	C238.345734,108.546913 237.753754,108.151009 237.445923,107.346474 
	C238.105072,106.253845 238.480057,105.569855 238.855057,104.885857 
	C238.855057,104.885857 238.924423,104.891403 238.912903,104.858498 
z"/>
<path fill="#0A0A0A" opacity="1.000000" stroke="none" 
	d="
M94.965164,144.526199 
	C94.739594,143.397263 94.514015,142.268341 94.844727,141.288330 
	C95.598770,141.311050 95.796524,141.184830 95.994278,141.058624 
	C95.994278,141.058624 96.006615,140.995880 95.775330,141.466263 
	C95.704468,142.807816 95.864891,143.678970 96.025314,144.550140 
	C96.025314,144.550140 96.001877,144.516861 95.750992,144.305435 
	C95.321793,144.238068 95.143478,144.382141 94.965164,144.526199 
z"/>
<path fill="#0A0A0A" opacity="1.000000" stroke="none" 
	d="
M338.003906,112.450851 
	C337.238373,111.580544 336.769562,110.688263 336.300751,109.795975 
	C336.757233,109.643723 337.213684,109.491470 337.670166,109.339226 
	C337.880341,110.369102 338.090515,111.398987 338.003906,112.450851 
z"/>
<path fill="#B9B9B8" opacity="1.000000" stroke="none" 
	d="
M356.006165,152.998596 
	C356.807587,152.656982 357.602692,152.317871 358.397827,151.978745 
	C358.627228,152.723816 358.856628,153.468887 358.664001,154.602478 
	C357.999969,154.962891 357.758026,154.934814 357.507629,154.697876 
	C357.340485,154.259552 357.151215,154.058945 356.914734,153.640961 
	C356.632629,153.187546 356.334473,153.052597 356.003571,152.989899 
	C356.003571,152.989899 355.999847,153.001068 356.006165,152.998596 
z"/>
<path fill="#0A0A0A" opacity="1.000000" stroke="none" 
	d="
M324.892212,132.964264 
	C325.579712,132.729721 326.267212,132.495178 328.265106,131.813568 
	C326.857239,133.506409 326.276825,134.204300 325.124542,134.931351 
	C324.360931,134.947632 324.169159,134.934784 323.977417,134.921921 
	C323.984528,134.462219 323.991638,134.002502 324.231323,133.265137 
	C324.463898,132.987473 324.892212,132.964264 324.892212,132.964264 
z"/>
<path fill="#D8D8D8" opacity="1.000000" stroke="none" 
	d="
M220.729645,77.659081 
	C220.953308,77.649605 221.176971,77.640129 221.223373,77.460411 
	C220.716278,77.889313 220.386429,78.488464 220.056580,79.087608 
	C219.331406,79.189941 218.589935,79.411934 217.891602,79.316925 
	C217.698456,79.290649 217.633621,78.321350 217.509918,77.784721 
	C218.341095,77.884727 219.172272,77.984741 220.364990,77.823608 
	C220.726547,77.562469 220.729645,77.659081 220.729645,77.659081 
z"/>
<path fill="#151515" opacity="1.000000" stroke="none" 
	d="
M101.352463,123.002838 
	C100.720482,122.879501 100.465355,122.685730 100.131088,122.223221 
	C101.126610,121.935379 102.249344,121.853004 103.372070,121.770615 
	C102.808456,122.178970 102.244858,122.587326 101.352463,123.002838 
z"/>
<path fill="#0A0A0A" opacity="1.000000" stroke="none" 
	d="
M345.262848,98.060562 
	C344.980713,97.315987 344.890320,96.363579 344.799927,95.411171 
	C345.248901,95.467667 345.697845,95.524155 346.146820,95.580650 
	C345.916077,96.338013 345.685333,97.095375 345.262848,98.060562 
z"/>
<path fill="#151515" opacity="1.000000" stroke="none" 
	d="
M347.879089,180.239899 
	C348.626923,179.717316 349.374756,179.194733 350.322205,178.264801 
	C350.764587,177.883911 351.007263,177.910339 351.614868,177.964630 
	C351.972900,178.821640 351.966003,179.650803 351.900513,180.891251 
	C351.169067,181.154480 350.496185,181.006439 349.233337,180.535187 
	C348.402466,180.303879 348.161621,180.395767 347.920746,180.487671 
	C347.920746,180.487671 347.832977,180.377899 347.892090,180.283920 
	C347.951202,180.189941 347.879089,180.239883 347.879089,180.239899 
z"/>
<path fill="#2B2B2B" opacity="1.000000" stroke="none" 
	d="
M143.033569,131.528992 
	C143.094696,132.260101 143.155838,132.991211 142.582031,133.685822 
	C141.311493,133.458878 140.675903,133.268448 140.040314,133.078003 
	C140.637817,132.351059 141.235321,131.624130 142.204025,131.152374 
	C142.575211,131.407562 143.033569,131.528992 143.033569,131.528992 
z"/>
<path fill="#151515" opacity="1.000000" stroke="none" 
	d="
M217.131210,141.054123 
	C217.548950,140.415131 217.966675,139.776123 218.634827,138.981384 
	C218.438812,140.186447 217.992386,141.547256 217.271210,142.610474 
	C217.041382,141.893311 217.086304,141.473724 217.131210,141.054123 
z"/>
<path fill="#151515" opacity="1.000000" stroke="none" 
	d="
M234.339935,115.947014 
	C233.867218,115.659691 233.690613,115.308899 233.231812,114.831871 
	C233.531677,114.283272 234.113708,113.860916 234.695770,113.438560 
	C234.675858,114.253555 234.655945,115.068550 234.339935,115.947014 
z"/>
<path fill="#8D8C8D" opacity="1.000000" stroke="none" 
	d="
M357.222260,159.652191 
	C357.115814,160.286087 356.927551,160.520844 356.151489,160.817169 
	C355.109253,160.955215 354.610779,160.996445 354.112335,161.037674 
	C354.337067,159.943268 354.561768,158.848862 354.653687,157.415283 
	C354.429749,156.738373 354.338623,156.400635 354.774048,156.224823 
	C355.526855,156.576675 355.753113,156.766602 356.189270,157.045898 
	C356.699463,157.289429 356.855499,157.535095 356.867279,157.872269 
	C356.972992,158.344269 357.078705,158.816269 357.222260,159.652191 
z"/>
<path fill="#8D8C8D" opacity="1.000000" stroke="none" 
	d="
M220.434204,79.128998 
	C220.386429,78.488464 220.716278,77.889313 221.545456,77.555374 
	C223.259720,77.937386 224.474640,78.054199 225.689575,78.171005 
	C225.678284,78.391304 225.666992,78.611603 225.655701,78.831894 
	C224.041077,78.944733 222.426437,79.057564 220.434204,79.128998 
z"/>
<path fill="#737373" opacity="1.000000" stroke="none" 
	d="
M94.700302,144.682404 
	C95.143478,144.382141 95.321793,144.238068 95.761894,144.316956 
	C95.960251,145.125687 95.896828,145.711456 95.442062,146.748505 
	C94.758682,147.477600 94.466652,147.755417 93.878876,148.015961 
	C93.385628,147.998215 93.188133,147.997757 92.990631,147.997284 
	C93.472237,146.944397 93.953842,145.891495 94.700302,144.682404 
z"/>
<path fill="#0A0A0A" opacity="1.000000" stroke="none" 
	d="
M134.258789,160.347870 
	C133.782944,159.931747 133.558258,159.383377 133.333557,158.834991 
	C133.869247,158.802612 134.404922,158.770248 134.940613,158.737869 
	C134.797043,159.230453 134.653488,159.723022 134.258789,160.347870 
z"/>
<path fill="#5D5D5D" opacity="1.000000" stroke="none" 
	d="
M265.199768,173.186829 
	C264.364441,174.085648 263.529114,174.984451 262.264404,175.857117 
	C261.835022,175.830963 261.525787,175.528259 261.525787,175.528259 
	C262.338776,174.618393 263.151733,173.708542 264.418793,172.831848 
	C264.872864,172.865005 265.199768,173.186829 265.199768,173.186829 
z"/>
<path fill="#8D8C8D" opacity="1.000000" stroke="none" 
	d="
M88.344727,160.834320 
	C87.945442,160.608490 87.789490,160.347260 87.190491,159.883347 
	C86.866837,159.609375 86.805763,159.181931 86.864105,158.867462 
	C86.915962,158.339859 86.909477,158.126724 86.902985,157.913605 
	C87.560295,157.471390 88.217606,157.029190 88.932671,157.157471 
	C89.121117,158.008789 89.251816,158.289581 89.382507,158.570389 
	C89.157486,159.289474 88.932472,160.008575 88.344727,160.834320 
z"/>
<path fill="#2B2B2B" opacity="1.000000" stroke="none" 
	d="
M94.174614,148.033218 
	C94.466652,147.755417 94.758682,147.477600 95.294250,147.012360 
	C95.537781,146.824951 95.563576,146.841736 95.707039,147.141235 
	C95.901917,147.643707 95.953323,147.846710 96.004738,148.049698 
	C95.621086,148.697556 95.237434,149.345428 94.505463,149.696381 
	C94.162971,148.944061 94.168793,148.488632 94.174614,148.033218 
z"/>
<path fill="#8D8C8D" opacity="1.000000" stroke="none" 
	d="
M355.921051,162.959671 
	C355.946838,163.130646 355.972656,163.301636 355.989990,163.731842 
	C354.936829,163.397598 353.892090,162.804108 353.564056,162.043762 
	C354.827515,162.237839 355.374268,162.598755 355.921051,162.959671 
z"/>
<path fill="#B9B9B8" opacity="1.000000" stroke="none" 
	d="
M142.519058,131.177231 
	C143.133453,129.751144 143.804016,128.555405 144.474564,127.359650 
	C144.934097,127.618820 145.393631,127.877998 145.853165,128.137161 
	C145.180267,129.193024 144.507370,130.248886 143.434021,131.416870 
	C143.033569,131.528992 142.575211,131.407562 142.519058,131.177231 
z"/>
<path fill="#5D5D5D" opacity="1.000000" stroke="none" 
	d="
M261.106445,177.097107 
	C260.801147,177.721771 260.588959,178.430344 260.141479,178.926804 
	C259.979126,179.106949 259.254608,178.780350 258.786621,178.684982 
	C259.184509,178.058151 259.582367,177.431320 260.394714,176.812714 
	C260.809143,176.820923 261.106415,177.097092 261.106445,177.097107 
z"/>
<path fill="#B9B9B8" opacity="1.000000" stroke="none" 
	d="
M326.640717,128.617966 
	C325.907196,129.415634 325.421570,129.843719 324.935974,130.271820 
	C325.037048,129.176041 325.138123,128.080261 325.239197,126.984489 
	C325.789001,127.405792 326.338806,127.827095 326.640717,128.617966 
z"/>
<path fill="#0A0A0A" opacity="1.000000" stroke="none" 
	d="
M327.984131,122.656944 
	C328.301117,122.227020 328.618134,121.797089 328.935120,121.367149 
	C329.155518,121.775787 329.375946,122.184433 329.115601,122.665726 
	C328.417938,122.711227 328.201019,122.684082 327.984131,122.656944 
z"/>
<path fill="#2B2B2B" opacity="1.000000" stroke="none" 
	d="
M301.738953,180.004211 
	C301.550049,179.392639 301.518280,178.983337 301.486511,178.574051 
	C301.860779,179.094315 302.238800,179.612061 302.594391,180.144760 
	C302.607666,180.164627 302.405945,180.404144 302.298492,180.408936 
	C302.167633,180.414764 302.030518,180.280273 301.738953,180.004211 
z"/>
<path fill="#0A0A0A" opacity="1.000000" stroke="none" 
	d="
M342.669983,100.631622 
	C343.002655,100.782860 343.183746,101.077499 343.364838,101.372139 
	C343.082703,101.173103 342.800568,100.974068 342.669983,100.631622 
z"/>
<path fill="#2B2B2B" opacity="1.000000" stroke="none" 
	d="
M372.138123,114.107315 
	C371.684601,114.641869 371.231049,115.176422 370.777527,115.710999 
	C370.930328,115.124237 371.083099,114.537468 371.614014,113.968353 
	C371.992188,113.985992 372.138153,114.107323 372.138123,114.107315 
z"/>
<path fill="#151515" opacity="1.000000" stroke="none" 
	d="
M85.413414,160.666214 
	C85.450623,161.018600 85.487831,161.370987 85.279831,161.865402 
	C84.805061,161.354935 84.575500,160.702454 84.697479,160.122711 
	C85.049026,160.195450 85.210258,160.453339 85.261856,160.465378 
	C85.313454,160.477417 85.413414,160.666214 85.413414,160.666214 
z"/>
<path fill="#2B2B2B" opacity="1.000000" stroke="none" 
	d="
M226.099899,123.010567 
	C226.566589,123.308617 227.033295,123.606674 227.499985,123.904724 
	C227.327759,124.104721 227.155533,124.304718 226.983322,124.504715 
	C226.674377,124.221123 226.365433,123.937523 226.026306,123.334717 
	C225.996109,123.015518 226.099899,123.010567 226.099899,123.010567 
z"/>
<path fill="#4A4A4A" opacity="1.000000" stroke="none" 
	d="
M238.505615,104.878357 
	C238.480057,105.569855 238.105072,106.253845 237.437531,107.037750 
	C237.482040,106.382057 237.819092,105.626450 238.505615,104.878357 
z"/>
<path fill="#4A4A4A" opacity="1.000000" stroke="none" 
	d="
M86.609558,158.048126 
	C86.909477,158.126724 86.915962,158.339859 86.654274,159.020477 
	C85.994148,159.809784 85.602203,160.131561 85.210258,160.453339 
	C85.210258,160.453339 85.049026,160.195450 84.948357,160.081131 
	C85.337166,159.372086 85.826645,158.777374 86.609558,158.048126 
z"/>
<path fill="#8D8C8D" opacity="1.000000" stroke="none" 
	d="
M356.931427,153.887161 
	C357.151215,154.058945 357.340485,154.259552 357.749817,155.114838 
	C358.080627,156.051590 358.160828,156.362534 358.241028,156.673477 
	C358.241028,156.673477 357.823120,156.612915 357.444458,156.358047 
	C356.800446,156.090118 356.535126,156.077072 356.123230,155.736786 
	C355.983215,154.939636 355.989746,154.469757 355.996277,153.999878 
	C355.996277,153.999878 356.000000,154.000000 356.226562,153.919342 
	C356.453125,153.838699 356.931427,153.887161 356.931427,153.887161 
z"/>
<path fill="#0A0A0A" opacity="1.000000" stroke="none" 
	d="
M131.637314,176.042877 
	C131.425919,175.754517 131.391861,175.357605 131.357788,174.960709 
	C131.510071,175.285248 131.662354,175.609802 131.637314,176.042877 
z"/>
<path fill="#D8D8D8" opacity="1.000000" stroke="none" 
	d="
M348.792328,175.231750 
	C348.867676,175.674286 348.798401,175.886749 348.737122,176.463776 
	C348.457947,176.803787 348.280945,176.815140 348.103912,176.826477 
	C347.825684,176.198914 347.547455,175.571365 347.269226,174.943787 
	C347.692017,174.951126 348.114838,174.958450 348.792328,175.231750 
z"/>
<path fill="#737373" opacity="1.000000" stroke="none" 
	d="
M212.649994,144.878662 
	C213.067657,145.356232 213.170776,145.766876 212.940735,146.544464 
	C212.428726,146.939941 212.249863,146.968475 211.829361,146.995605 
	C211.587708,146.994217 211.105392,147.025162 211.105392,147.025162 
	C211.515411,146.287354 211.925415,145.549545 212.649994,144.878662 
z"/>
<path fill="#8D8C8D" opacity="1.000000" stroke="none" 
	d="
M96.350479,144.408707 
	C95.864891,143.678970 95.704468,142.807816 95.743408,141.464417 
	C96.353165,141.455170 96.763565,141.918137 97.245132,142.715912 
	C97.102753,143.456238 96.889206,143.861755 96.350479,144.408707 
z"/>
<path fill="#B9B9B8" opacity="1.000000" stroke="none" 
	d="
M356.004822,162.565018 
	C355.374268,162.598755 354.827515,162.237839 353.932220,161.922607 
	C353.739258,161.851486 353.894775,161.734695 354.081329,161.327789 
	C354.610779,160.996445 355.109253,160.955215 355.937134,160.735443 
	C356.207275,161.094696 356.147949,161.632538 356.004822,162.565018 
z"/>
<path fill="#2B2B2B" opacity="1.000000" stroke="none" 
	d="
M348.038696,177.114288 
	C348.280945,176.815140 348.457947,176.803787 348.829193,176.610535 
	C348.891968,177.457367 348.760529,178.486099 348.254089,179.877350 
	C347.879089,180.239883 347.951202,180.189941 347.938690,180.231323 
	C347.926178,180.272720 347.688110,179.886459 347.855438,179.338928 
	C348.015717,178.524796 348.008698,178.258209 348.001648,177.991638 
	C347.992249,177.795120 347.982849,177.598618 348.038696,177.114288 
z"/>
<path fill="#B9B9B8" opacity="1.000000" stroke="none" 
	d="
M204.328705,164.358658 
	C204.750595,164.780899 204.930038,165.437393 205.109467,166.093903 
	C204.890518,166.150116 204.671585,166.206345 204.452637,166.262558 
	C204.330505,165.706009 204.208389,165.149460 204.328705,164.358658 
z"/>
<path fill="#D8D8D8" opacity="1.000000" stroke="none" 
	d="
M217.579605,136.142654 
	C217.877518,136.383621 217.821243,136.567673 217.545563,136.939453 
	C216.924316,137.369247 216.522430,137.611359 215.877594,137.906525 
	C216.164886,137.334976 216.695160,136.710373 217.579605,136.142654 
z"/>
<path fill="#F3F4F4" opacity="1.000000" stroke="none" 
	d="
M139.972168,133.455017 
	C140.675903,133.268448 141.311493,133.458878 142.272110,133.841736 
	C141.699432,133.966797 140.801712,133.899414 139.972168,133.455017 
z"/>
<path fill="#D8D8D8" opacity="1.000000" stroke="none" 
	d="
M324.925476,132.623016 
	C324.892212,132.964264 324.463898,132.987473 324.259857,132.921494 
	C323.940582,132.252960 323.825348,131.650421 323.710144,131.047867 
	C324.126343,131.459167 324.542511,131.870453 324.925476,132.623016 
z"/>
<path fill="#2B2B2B" opacity="1.000000" stroke="none" 
	d="
M222.990555,127.328072 
	C222.729813,126.708199 222.469070,126.088326 222.208313,125.468452 
	C222.754562,125.462898 223.300827,125.457352 223.716431,125.913002 
	C223.387375,126.692162 223.188965,127.010117 222.990555,127.328072 
z"/>
<path fill="#0A0A0A" opacity="1.000000" stroke="none" 
	d="
M88.011139,150.698853 
	C87.970581,150.698822 88.051689,150.698914 88.011139,150.698853 
z"/>
<path fill="#D8D8D8" opacity="1.000000" stroke="none" 
	d="
M347.589783,177.897522 
	C348.008698,178.258209 348.015717,178.524796 348.027771,179.191406 
	C347.409485,179.105240 346.786194,178.619080 346.162872,178.132935 
	C346.501221,178.023087 346.839539,177.913254 347.589783,177.897522 
z"/>
<path fill="#0A0A0A" opacity="1.000000" stroke="none" 
	d="
M329.213593,111.820618 
	C329.281403,112.295944 329.349213,112.771271 329.417023,113.246597 
	C329.258179,113.011818 329.099365,112.777039 328.990784,112.249985 
	C329.041077,111.957703 329.213593,111.820618 329.213593,111.820618 
z"/>
<path fill="#0A0A0A" opacity="1.000000" stroke="none" 
	d="
M328.953857,112.024994 
	C328.762970,111.623451 328.659302,111.154617 328.555603,110.685791 
	C328.733917,110.915077 328.912231,111.144356 329.152100,111.597122 
	C329.213593,111.820618 329.041077,111.957703 328.953857,112.024994 
z"/>
<path fill="#0A0A0A" opacity="1.000000" stroke="none" 
	d="
M227.016479,76.341568 
	C227.158554,76.079094 227.327011,76.031311 227.751755,76.040947 
	C227.846436,76.461029 227.684845,76.823685 227.523254,77.186356 
	C227.363113,76.976326 227.202988,76.766296 227.016479,76.341568 
z"/>
<path fill="#2B2B2B" opacity="1.000000" stroke="none" 
	d="
M224.077118,126.649071 
	C224.372925,127.107742 224.668747,127.566414 224.964569,128.025085 
	C224.592712,128.186035 224.220856,128.347000 223.827957,127.922043 
	C223.896988,127.107109 223.987045,126.878090 224.077118,126.649071 
z"/>
<path fill="#B9B9B8" opacity="1.000000" stroke="none" 
	d="
M89.564590,155.529953 
	C89.950211,155.058136 90.508606,155.091522 91.486176,155.078857 
	C92.021271,155.325272 92.137192,155.617752 92.106857,155.994995 
	C91.702805,156.336792 91.445015,156.593811 91.187225,156.850830 
	C90.703934,156.578949 90.220650,156.307053 89.564590,155.529953 
z"/>
<path fill="#1B1B1A" opacity="1.000000" stroke="none" 
	d="
M281.289856,156.258575 
	C281.307404,155.962463 281.475922,155.795639 281.644409,155.628815 
	C281.576569,155.881836 281.508728,156.134857 281.289856,156.258575 
z"/>
<path fill="#1B1B1A" opacity="1.000000" stroke="none" 
	d="
M358.481689,156.644394 
	C358.160828,156.362534 358.080627,156.051590 357.758240,155.323685 
	C357.758026,154.934814 357.999969,154.962891 358.606384,154.965210 
	C358.888000,155.498047 358.805176,156.056686 358.481689,156.644394 
z"/>
<path fill="#2B2B2B" opacity="1.000000" stroke="none" 
	d="
M91.366028,156.895370 
	C91.445015,156.593811 91.702805,156.336792 92.453720,156.314987 
	C92.479500,156.680099 92.012161,156.809998 91.366028,156.895370 
z"/>
<path fill="#B9B9B8" opacity="1.000000" stroke="none" 
	d="
M356.269806,156.064041 
	C356.535126,156.077072 356.800446,156.090118 357.466125,156.148010 
	C357.791931,156.695129 357.717377,157.197403 357.255066,157.785980 
	C356.855499,157.535095 356.699463,157.289429 356.286743,156.830872 
	C356.174286,156.526459 356.269806,156.064041 356.269806,156.064041 
z"/>
<path fill="#4A4A4A" opacity="1.000000" stroke="none" 
	d="
M89.448700,158.439178 
	C89.251816,158.289581 89.121117,158.008789 89.199295,157.711456 
	C89.587593,157.841843 89.623169,158.046188 89.448700,158.439178 
z"/>
<path fill="#D8D8D8" opacity="1.000000" stroke="none" 
	d="
M376.422791,107.033760 
	C376.607849,106.615982 377.190613,106.328583 378.171082,106.006287 
	C377.986023,106.368973 377.403259,106.766556 376.422791,107.033760 
z"/>
<path fill="#151515" opacity="1.000000" stroke="none" 
	d="
M224.075333,126.516708 
	C223.987045,126.878090 223.896988,127.107109 223.634613,127.663010 
	C223.348083,127.849091 223.242584,127.702026 223.068176,127.438377 
	C223.188965,127.010117 223.387375,126.692162 223.838470,126.247208 
	C224.091156,126.120201 224.073547,126.384354 224.075333,126.516708 
z"/>
<path fill="#B9B9B8" opacity="1.000000" stroke="none" 
	d="
M326.264160,125.036507 
	C326.916199,125.093445 327.348999,125.563858 327.781799,126.034271 
	C327.202820,125.839500 326.623871,125.644737 326.264160,125.036507 
z"/>
<path fill="#B9B9B8" opacity="1.000000" stroke="none" 
	d="
M327.665131,122.866699 
	C328.201019,122.684082 328.417938,122.711227 328.943573,122.848801 
	C328.920135,123.398888 328.587952,123.838554 328.255768,124.278214 
	C327.952576,123.877632 327.649353,123.477051 327.665131,122.866699 
z"/>
<path fill="#5D5D5D" opacity="1.000000" stroke="none" 
	d="
M206.030792,162.921722 
	C205.561264,162.634689 205.433212,162.037308 205.305145,161.439926 
	C205.660843,161.830399 206.016556,162.220886 206.030792,162.921722 
z"/>
<path fill="#151515" opacity="1.000000" stroke="none" 
	d="
M84.548920,163.097870 
	C84.527016,163.439087 84.368195,163.877914 84.022797,164.154099 
	C83.980446,163.690506 84.172379,163.425201 84.548920,163.097870 
z"/>
<path fill="#8D8C8D" opacity="1.000000" stroke="none" 
	d="
M210.906647,147.470123 
	C211.105392,147.025162 211.587708,146.994217 211.811157,147.304352 
	C211.991241,148.023834 211.947891,148.433182 211.904526,148.842529 
	C211.726303,148.934143 211.548096,149.025757 211.166931,149.339020 
	C210.878601,149.012146 210.793243,148.463623 210.906647,147.470123 
z"/>
<path fill="#737373" opacity="1.000000" stroke="none" 
	d="
M212.906677,143.333481 
	C213.271561,143.212738 213.525696,143.407593 213.912109,143.680450 
	C213.925842,144.053314 213.822113,144.326721 213.328964,144.802185 
	C212.886749,144.559647 212.833923,144.115082 212.906677,143.333481 
z"/>
<path fill="#2B2B2B" opacity="1.000000" stroke="none" 
	d="
M371.920837,113.923447 
	C372.035767,113.453194 372.222076,113.045502 372.408356,112.637802 
	C372.442444,113.024536 372.476532,113.411270 372.324402,113.952667 
	C372.138153,114.107323 371.992188,113.985992 371.920837,113.923447 
z"/>
<path fill="#737373" opacity="1.000000" stroke="none" 
	d="
M216.911194,141.271667 
	C217.086304,141.473724 217.041382,141.893311 216.939850,142.624954 
	C216.883255,142.936996 216.487289,143.042953 216.292847,143.107742 
	C216.295990,142.611435 216.493576,142.050323 216.911194,141.271667 
z"/>
<path fill="#4A4A4A" opacity="1.000000" stroke="none" 
	d="
M213.490295,140.867371 
	C213.638718,141.153137 213.535675,141.484634 213.182083,141.908691 
	C212.749725,141.842422 212.567917,141.683594 212.386108,141.524750 
	C212.670349,141.320847 212.954590,141.116959 213.490295,140.867371 
z"/>
<path fill="#151515" opacity="1.000000" stroke="none" 
	d="
M212.153290,79.128365 
	C212.025055,79.605492 211.785538,79.993790 211.546021,80.382095 
	C211.513321,79.981766 211.480621,79.581451 211.634735,79.020187 
	C211.821548,78.859238 212.041992,79.039536 212.153290,79.128365 
z"/>
<path fill="#B9B9B8" opacity="1.000000" stroke="none" 
	d="
M250.953262,94.987991 
	C251.308105,94.548584 251.662949,94.109169 252.418045,93.714874 
	C252.931931,93.890678 253.045547,94.021362 253.159180,94.152039 
	C253.131546,94.504494 252.970505,94.778526 252.123642,95.007141 
	C251.365265,95.022758 251.159271,95.005379 250.953262,94.987991 
z"/>
<path fill="#2B2B2B" opacity="1.000000" stroke="none" 
	d="
M303.008728,176.989410 
	C302.764221,176.590347 302.519684,176.191284 302.275146,175.792206 
	C302.417084,175.719452 302.558960,175.646698 302.700867,175.573944 
	C302.782349,175.883148 302.863861,176.192337 302.972534,176.750854 
	C302.999756,177.000168 303.008759,176.989410 303.008728,176.989410 
z"/>
<path fill="#B9B9B8" opacity="1.000000" stroke="none" 
	d="
M347.869995,180.911240 
	C348.161621,180.395767 348.402466,180.303879 348.879822,180.517944 
	C348.756500,181.409653 348.396698,181.995407 347.747864,182.788391 
	C347.578918,182.442032 347.699066,181.888412 347.869995,180.911240 
z"/>
<path fill="#8D8C8D" opacity="1.000000" stroke="none" 
	d="
M93.878876,148.015961 
	C94.168793,148.488632 94.162971,148.944061 94.181190,149.740295 
	C94.205238,150.081100 94.090431,150.318024 94.000397,150.413269 
	C93.722321,150.408920 93.534279,150.309341 93.063751,149.755661 
	C92.717117,149.133942 92.652962,148.966339 92.588799,148.798721 
	C92.588799,148.798721 92.686455,148.346237 92.838547,148.171753 
	C93.188133,147.997757 93.385628,147.998215 93.878876,148.015961 
z"/>
<path fill="#D8D8D8" opacity="1.000000" stroke="none" 
	d="
M246.438873,100.936150 
	C245.998779,100.674004 245.888687,100.284370 245.896545,99.507324 
	C246.014496,99.119911 246.457184,98.997314 246.978638,99.053543 
	C247.706970,99.142845 247.913849,99.175926 248.120712,99.209007 
	C247.670105,99.742233 247.219498,100.275452 246.438873,100.936150 
z"/>
<path fill="#D8D8D8" opacity="1.000000" stroke="none" 
	d="
M251.065125,96.060127 
	C250.901367,96.353088 250.737610,96.646049 250.119293,96.859100 
	C249.664749,96.779205 249.243301,96.512047 249.243301,96.512039 
	C249.491486,96.243416 249.739670,95.974792 250.363037,95.720634 
	C250.738205,95.735100 251.065125,96.060127 251.065125,96.060127 
z"/>
<path fill="#4A4A4A" opacity="1.000000" stroke="none" 
	d="
M83.778488,166.627808 
	C83.939919,166.570007 84.200478,166.770309 84.687454,167.075195 
	C84.559601,167.093323 84.214188,166.995361 83.778488,166.627808 
z"/>
<path fill="#2B2B2B" opacity="1.000000" stroke="none" 
	d="
M302.994202,177.004852 
	C303.137909,177.175476 303.287109,177.341446 303.436340,177.507416 
	C303.319366,177.454758 303.202362,177.402100 303.047058,177.169434 
	C303.008759,176.989410 302.999756,177.000168 302.994202,177.004852 
z"/>
<path fill="#2B2B2B" opacity="1.000000" stroke="none" 
	d="
M301.369263,184.295670 
	C301.608032,184.258682 301.696472,184.365295 301.784912,184.471924 
	C301.596252,184.461044 301.407623,184.450165 301.369263,184.295670 
z"/>
<path fill="#D8D8D8" opacity="1.000000" stroke="none" 
	d="
M243.328491,104.045792 
	C243.146072,103.640396 243.229950,103.169762 243.711884,102.879059 
	C243.938202,103.366173 243.766495,103.673355 243.328491,104.045792 
z"/>
<path fill="#D8D8D8" opacity="1.000000" stroke="none" 
	d="
M244.320114,103.044876 
	C244.145767,102.625145 244.235962,102.138390 244.716156,101.858398 
	C244.932312,102.369400 244.758484,102.673622 244.320114,103.044876 
z"/>
<path fill="#D8D8D8" opacity="1.000000" stroke="none" 
	d="
M245.320221,102.040207 
	C245.143265,101.609566 245.227386,101.109291 245.707397,100.838715 
	C245.929306,101.369125 245.755295,101.669846 245.320221,102.040207 
z"/>
<path fill="#5D5D5D" opacity="1.000000" stroke="none" 
	d="
M260.665771,176.677414 
	C260.680664,176.251587 260.886353,176.009537 261.332611,175.667999 
	C261.525787,175.528259 261.835022,175.830963 261.984680,175.987396 
	C262.044952,176.476852 261.856506,176.738556 261.337708,177.013000 
	C261.106415,177.097092 260.809143,176.820923 260.665771,176.677414 
z"/>
<path fill="#1B1B1A" opacity="1.000000" stroke="none" 
	d="
M201.561050,167.588776 
	C201.473923,167.650879 201.438583,167.413391 201.438583,167.413391 
	C201.438583,167.413391 201.648178,167.526688 201.561050,167.588776 
z"/>
<path fill="#1B1B1A" opacity="1.000000" stroke="none" 
	d="
M356.537292,167.554718 
	C356.476776,167.591888 356.597778,167.517548 356.537292,167.554718 
z"/>
<path fill="#8D8C8D" opacity="1.000000" stroke="none" 
	d="
M352.778412,171.600372 
	C352.796478,172.032898 352.626801,172.122009 352.193665,172.326996 
	C351.770599,172.209137 351.610992,171.975403 351.451385,171.741653 
	C351.831116,171.580093 352.210876,171.418549 352.778412,171.600372 
z"/>
<path fill="#D8D8D8" opacity="1.000000" stroke="none" 
	d="
M247.203384,99.006195 
	C247.452698,98.831467 247.998734,98.760300 248.332733,98.949074 
	C247.913849,99.175926 247.706970,99.142845 247.203384,99.006195 
z"/>
<path fill="#2B2B2B" opacity="1.000000" stroke="none" 
	d="
M300.393433,181.401367 
	C300.589600,181.384033 300.656219,181.474442 300.722839,181.564850 
	C300.569855,181.546280 300.416870,181.527695 300.393433,181.401367 
z"/>
<path fill="#0A0A0A" opacity="1.000000" stroke="none" 
	d="
M253.459564,183.436890 
	C253.524338,183.395493 253.394791,183.478287 253.459564,183.436890 
z"/>
<path fill="#5D5D5D" opacity="1.000000" stroke="none" 
	d="
M264.713806,172.699753 
	C264.915100,172.385208 265.275421,172.235931 265.635742,172.086639 
	C265.652679,172.353836 265.669617,172.621002 265.443176,173.037506 
	C265.199768,173.186829 264.872864,172.865005 264.713806,172.699753 
z"/>
<path fill="#151515" opacity="1.000000" stroke="none" 
	d="
M220.836670,77.388100 
	C220.729645,77.659081 220.726547,77.562469 220.727615,77.608643 
	C220.599640,77.363655 220.470581,77.072487 220.214172,76.320427 
	C220.273010,75.946648 220.459198,76.033745 220.870728,76.337784 
	C221.045258,76.742180 220.994461,76.929649 220.836670,77.388100 
z"/>
<path fill="#1B1B1A" opacity="1.000000" stroke="none" 
	d="
M205.575714,173.439728 
	C205.630310,173.520187 205.415939,173.550415 205.415939,173.550415 
	C205.415939,173.550415 205.521118,173.359283 205.575714,173.439728 
z"/>
<path fill="#2B2B2B" opacity="1.000000" stroke="none" 
	d="
M379.637146,95.676567 
	C379.384399,95.711136 379.291473,95.602280 379.198578,95.493439 
	C379.398041,95.506676 379.597534,95.519913 379.637146,95.676567 
z"/>
<path fill="#D8D8D8" opacity="1.000000" stroke="none" 
	d="
M249.866653,96.925789 
	C249.705338,97.399651 249.342102,97.726929 248.978867,98.054199 
	C248.875412,97.705467 248.771957,97.356735 248.955902,96.760025 
	C249.243301,96.512047 249.664749,96.779205 249.866653,96.925789 
z"/>
<path fill="#B9B9B8" opacity="1.000000" stroke="none" 
	d="
M252.658829,93.554939 
	C252.873138,93.154732 253.246918,92.959579 253.620697,92.764420 
	C253.664871,93.140854 253.709030,93.517296 253.456177,94.022888 
	C253.045547,94.021362 252.931931,93.890678 252.658829,93.554939 
z"/>
<path fill="#737373" opacity="1.000000" stroke="none" 
	d="
M226.183441,122.167656 
	C226.183441,122.167656 226.137253,122.588692 226.118576,122.799629 
	C226.099899,123.010567 225.996109,123.015518 226.004700,123.067673 
	C225.711182,122.661720 225.409073,122.203621 225.463333,121.731331 
	C225.940948,121.867310 226.062195,122.017487 226.183441,122.167656 
z"/>
<path fill="#737373" opacity="1.000000" stroke="none" 
	d="
M225.669556,121.469620 
	C225.921814,121.116943 226.324249,121.011787 226.726669,120.906631 
	C226.712387,121.206879 226.698090,121.507126 226.433624,121.987518 
	C226.062195,122.017487 225.940948,121.867310 225.669556,121.469620 
z"/>
<path fill="#737373" opacity="1.000000" stroke="none" 
	d="
M227.537598,118.710434 
	C228.076111,118.811272 228.194672,119.154892 228.163315,120.023010 
	C227.714813,120.016075 227.416245,119.484642 227.537598,118.710434 
z"/>
<path fill="#2B2B2B" opacity="1.000000" stroke="none" 
	d="
M223.519318,130.442276 
	C223.547852,130.492493 223.490784,130.392059 223.519318,130.442276 
z"/>
<path fill="#2B2B2B" opacity="1.000000" stroke="none" 
	d="
M225.378967,130.357910 
	C225.602356,130.334091 225.681961,130.430054 225.761581,130.526016 
	C225.586121,130.509918 225.410660,130.493805 225.378967,130.357910 
z"/>
<path fill="#151515" opacity="1.000000" stroke="none" 
	d="
M232.576874,118.578217 
	C232.374008,118.527847 232.423859,118.475800 232.397476,118.449127 
	C232.507309,118.491173 232.643509,118.559875 232.576874,118.578217 
z"/>
<path fill="#0A0A0A" opacity="1.000000" stroke="none" 
	d="
M348.546539,92.454453 
	C348.577087,92.507729 348.515991,92.401169 348.546539,92.454453 
z"/>
<path fill="#151515" opacity="1.000000" stroke="none" 
	d="
M324.057617,135.124512 
	C324.169159,134.934784 324.360931,134.947632 324.840179,134.994385 
	C324.797729,135.127884 324.467773,135.227493 324.057617,135.124512 
z"/>
<path fill="#D8D8D8" opacity="1.000000" stroke="none" 
	d="
M250.789429,95.041550 
	C251.159271,95.005379 251.365265,95.022758 251.881317,95.045563 
	C251.993011,95.347366 251.794647,95.643768 251.330704,96.000145 
	C251.065125,96.060127 250.738205,95.735100 250.588318,95.559845 
	C250.438446,95.384598 250.625610,95.095108 250.789429,95.041550 
z"/>
<path fill="#151515" opacity="1.000000" stroke="none" 
	d="
M220.028778,137.979370 
	C220.155716,138.109711 220.256805,138.263397 220.357910,138.417099 
	C220.267059,138.379303 220.176208,138.341507 220.020905,138.179169 
	C219.956451,138.054611 220.002945,138.002747 220.028778,137.979370 
z"/>
<path fill="#151515" opacity="1.000000" stroke="none" 
	d="
M102.566696,115.590843 
	C102.474480,115.657173 102.434601,115.406075 102.434601,115.406075 
	C102.434601,115.406075 102.658905,115.524513 102.566696,115.590843 
z"/>
<path fill="#8D8C8D" opacity="1.000000" stroke="none" 
	d="
M96.004768,140.759949 
	C95.796524,141.184830 95.598770,141.311050 95.114548,141.232895 
	C94.850487,140.856796 94.872902,140.685074 94.948769,140.259125 
	C95.339905,140.157043 95.677582,140.309174 96.004768,140.759949 
z"/>
<path fill="#0A0A0A" opacity="1.000000" stroke="none" 
	d="
M349.460876,90.454239 
	C349.524902,90.413712 349.396851,90.494759 349.460876,90.454239 
z"/>
<path fill="#5D5D5D" opacity="1.000000" stroke="none" 
	d="
M207.563339,163.612427 
	C207.301041,163.629227 207.210297,163.520004 207.119537,163.410767 
	C207.324646,163.435974 207.529770,163.461197 207.563339,163.612427 
z"/>
<path fill="#4A4A4A" opacity="1.000000" stroke="none" 
	d="
M96.318436,147.957001 
	C95.953323,147.846710 95.901917,147.643707 95.713150,147.157639 
	C95.927902,147.204468 96.280014,147.534393 96.318436,147.957001 
z"/>
<path fill="#4A4A4A" opacity="1.000000" stroke="none" 
	d="
M92.533951,148.759949 
	C92.652962,148.966339 92.717117,149.133942 92.804306,149.569763 
	C92.644409,149.714066 92.461472,149.590195 92.257812,149.133423 
	C92.237106,148.800552 92.479111,148.721191 92.533951,148.759949 
z"/>
<path fill="#1B1B1A" opacity="1.000000" stroke="none" 
	d="
M208.588165,149.445587 
	C208.645660,149.526810 208.423431,149.557129 208.423431,149.557129 
	C208.423431,149.557129 208.530655,149.364380 208.588165,149.445587 
z"/>
<path fill="#1B1B1A" opacity="1.000000" stroke="none" 
	d="
M281.577820,151.002472 
	C281.771393,151.050156 281.815033,151.246048 281.914978,151.737946 
	C281.790161,151.739517 281.609009,151.445099 281.577820,151.002472 
z"/>
<path fill="#B9B9B8" opacity="1.000000" stroke="none" 
	d="
M236.953308,110.951981 
	C236.781265,111.297783 236.609207,111.643593 236.437134,111.989395 
	C236.421799,111.649773 236.406479,111.310143 236.694702,110.984573 
	C236.998276,110.998619 236.953308,110.951973 236.953308,110.951981 
z"/>
<path fill="#B9B9B8" opacity="1.000000" stroke="none" 
	d="
M237.020966,111.021744 
	C237.154785,110.714279 237.265930,110.383690 237.806778,110.144676 
	C238.236481,110.236252 238.555649,110.538826 238.555649,110.538834 
	C238.213455,110.701401 237.871262,110.863976 237.241180,110.989258 
	C236.953308,110.951973 236.998276,110.998619 237.020966,111.021744 
z"/>
<path fill="#0A0A0A" opacity="1.000000" stroke="none" 
	d="
M131.486176,157.470795 
	C131.523178,157.452515 131.449188,157.489090 131.486176,157.470795 
z"/>
<path fill="#B9B9B8" opacity="1.000000" stroke="none" 
	d="
M238.082062,110.079712 
	C238.096542,109.636055 238.265457,109.348946 238.686035,109.002335 
	C239.041992,109.075607 239.146271,109.208405 239.377136,109.560829 
	C239.334549,109.996582 239.137863,110.183807 238.734650,110.440475 
	C238.555649,110.538826 238.236481,110.236252 238.082062,110.079712 
z"/>
<path fill="#B9B9B8" opacity="1.000000" stroke="none" 
	d="
M241.252884,106.043808 
	C241.103378,105.631897 241.253525,105.230110 241.749954,104.947258 
	C241.915009,105.395439 241.733765,105.724686 241.252884,106.043808 
z"/>
<path fill="#D8D8D8" opacity="1.000000" stroke="none" 
	d="
M242.295197,105.057877 
	C242.147629,104.619675 242.273254,104.124893 242.750763,103.852600 
	C242.924561,104.383835 242.746475,104.692566 242.295197,105.057877 
z"/>
<path fill="#0A0A0A" opacity="1.000000" stroke="none" 
	d="
M341.960510,103.940140 
	C342.059662,103.900452 342.205780,103.912407 342.231506,104.004837 
	C342.111115,104.085312 342.007477,103.991776 341.960510,103.940140 
z"/>
<path fill="#5D5D5D" opacity="1.000000" stroke="none" 
	d="
M212.217926,148.851837 
	C211.947891,148.433182 211.991241,148.023834 212.052811,147.305756 
	C212.249863,146.968475 212.428726,146.939941 212.873840,146.855209 
	C213.140091,146.799026 213.129486,146.886749 213.102432,147.223755 
	C213.417648,147.744843 213.759918,147.928909 214.102173,148.112991 
	C213.578552,148.362381 213.054932,148.611771 212.217926,148.851837 
z"/>
<path fill="#8D8C8D" opacity="1.000000" stroke="none" 
	d="
M214.152893,147.758728 
	C213.759918,147.928909 213.417648,147.744843 213.063721,147.245087 
	C213.435928,147.087738 213.819778,147.246094 214.152893,147.758728 
z"/>
<path fill="#000000" opacity="1.000000" stroke="none" 
	d="
M212.000931,154.999268 
	C212.001862,154.998550 211.620010,154.816864 211.620010,154.816864 
	C211.620010,154.816864 211.870087,154.821899 211.934235,154.912247 
	C211.998367,155.002594 212.000000,155.000000 212.000931,154.999268 
z"/>
<path fill="#000000" opacity="1.000000" stroke="none" 
	d="
M378.392975,101.417450 
	C378.450317,101.383026 378.335632,101.451881 378.392975,101.417450 
z"/>
<path fill="#000000" opacity="1.000000" stroke="none" 
	d="
M85.261856,160.465378 
	C85.602203,160.131561 85.994148,159.809784 86.595932,159.334961 
	C86.805763,159.181931 86.866837,159.609375 86.972534,159.797653 
	C86.713463,160.147232 86.348686,160.308548 85.698662,160.568024 
	C85.413414,160.666214 85.313454,160.477417 85.261856,160.465378 
z"/>
<path fill="#000000" opacity="1.000000" stroke="none" 
	d="
M356.123230,155.736786 
	C356.269806,156.064041 356.174286,156.526459 356.076843,156.741501 
	C355.753113,156.766602 355.526855,156.576675 355.221191,155.950226 
	C355.313538,155.065277 355.485260,154.616852 355.826630,154.084167 
	C355.989746,154.469757 355.983215,154.939636 356.123230,155.736786 
z"/>
<path fill="#000000" opacity="1.000000" stroke="none" 
	d="
M356.914734,153.640961 
	C356.931427,153.887161 356.453125,153.838699 356.226166,153.917877 
	C355.983887,153.829102 355.968567,153.661179 355.978424,153.241577 
	C356.334473,153.052597 356.632629,153.187546 356.914734,153.640961 
z"/>
</svg>